<?xml version="1.0" encoding="iso-8859-1"?>
<!-- Generator: Adobe Illustrator 19.0.0, SVG Export Plug-In . SVG Version: 6.00 Build 0)  -->
<svg version="1.1" id="Capa_1" xmlns="http://www.w3.org/2000/svg" xmlns:xlink="http://www.w3.org/1999/xlink" x="0px" y="0px"
	 viewBox="0 0 511.999 511.999" style="enable-background:new 0 0 511.999 511.999;" xml:space="preserve">
<path style="fill:#FEDA9B;" d="M173.64,86.702L173.64,86.702c16.32-16.32,16.32-42.781,0-59.102l-5.373-5.373
	c-16.32-16.32-42.781-16.32-59.101,0l0,0c-16.32,16.32-16.32,42.781,0,59.101l5.373,5.373
	C130.859,103.022,157.32,103.022,173.64,86.702z"/>
<path style="fill:#36D28F;" d="M355.166,87.987H214.03c-17.932,0-32.469,14.537-32.469,32.469v52.925h-34.044
	c-11.996,0-21.72,9.725-21.72,21.72l0,0c0,11.996,9.724,21.72,21.72,21.72h47.035c14.051,0,26.323-9.507,29.834-23.112l5.61-21.738
	l8.083,14.015h73.92l-36.919,21.431c-19.446,11.288-31.415,32.074-31.415,54.56V416.32c0,6.443,5.223,11.667,11.667,11.667h13.031
	c5.741,0,10.628-4.176,11.524-9.847l25.612-162.153l83.804-56.815c16.696-11.32,26.696-30.18,26.696-50.352l0,0
	C415.999,115.223,388.763,87.987,355.166,87.987z"/>
<g>
	<circle style="fill:#C9F3FF;" cx="401.999" cy="401.989" r="100"/>
	<circle style="fill:#C9F3FF;" cx="109.999" cy="401.989" r="100"/>
</g>
<path d="M493.666,491.987h-28.495c28.3-19.924,46.828-52.837,46.828-90c0-60.654-49.346-110-110-110
	c-16.455,0-32.074,3.638-46.105,10.143l-27.885-48.298c-0.143-0.248-0.3-0.481-0.46-0.712l67.365-45.671
	c19.465-13.196,31.085-35.113,31.085-58.629c0-39.058-31.775-70.833-70.833-70.833h-17.167c-5.522,0-10,4.478-10,10s4.478,10,10,10
	h17.167c28.029,0,50.833,22.804,50.833,50.833c0,16.876-8.339,32.604-22.308,42.074l-83.804,56.815
	c-2.29,1.553-3.835,3.984-4.267,6.717L270.009,416.58c-0.128,0.814-0.821,1.406-1.646,1.406h-13.031
	c-0.919,0-1.666-0.748-1.666-1.667V261.977c0-18.854,10.129-36.445,26.435-45.911l36.919-21.431c3.91-2.27,5.812-6.882,4.636-11.248
	s-5.135-7.4-9.656-7.4h-72.712l8.609-33.359c1.38-5.348-1.836-10.802-7.184-12.182c-5.346-1.382-10.801,1.836-12.182,7.184
	l-13.828,53.581c-2.372,9.191-10.659,15.611-20.151,15.611h-47.035c-6.462,0-11.72-5.258-11.72-11.721s5.258-11.721,11.72-11.721
	h8.482h25.562c5.522,0,10-4.478,10-10v-50.394c0-5.522-4.478-10-10-10s-10,4.478-10,10v40.394h-15.562h-8.482h-46.462
	c-10.813,0-20.704,4.986-27.134,13.681c-6.431,8.694-8.304,19.611-5.137,29.953c4.372,14.275,17.341,23.866,32.271,23.866h1.944
	c5.522,0,10-4.478,10-10s-4.478-10-10-10h-1.944c-6.083,0-11.366-3.907-13.147-9.723c-1.29-4.213-0.527-8.661,2.093-12.204
	c2.62-3.542,6.649-5.573,11.055-5.573h16.996c-1.449,3.629-2.254,7.581-2.254,11.721c0,17.491,14.229,31.721,31.72,31.721h20.399
	l-27.249,69.521c-9.739-2.832-20.028-4.356-30.668-4.356c-60.654,0-110,49.346-110,110s49.346,110,110,110h108.422
	c5.522,0,10-4.478,10-10s-4.478-10-10-10h-45.25c28.3-19.924,46.828-52.837,46.828-90c0-42.947-24.743-80.218-60.719-98.323
	l13-33.168l61.386,94.781v51.044c0,11.947,9.72,21.667,21.666,21.667h13.031c10.728,0,19.729-7.69,21.402-18.286l1.218-7.714h1.475
	c2.99,33.026,20.636,61.884,46.369,80h-26.829c-5.522,0-10,4.478-10,10s4.478,10,10,10h181.667c5.522,0,10-4.478,10-10
	S499.188,491.987,493.666,491.987z M199.999,401.987c0,49.626-40.374,90-90,90s-90-40.374-90-90s40.374-90,90-90
	c8.067,0,15.887,1.073,23.332,3.073l-32.641,83.277c-2.016,5.143,0.52,10.944,5.661,12.96c1.199,0.47,2.433,0.692,3.646,0.692
	c3.994,0,7.768-2.41,9.313-6.354l32.632-83.256C180.497,337.485,199.999,367.499,199.999,401.987z M181.264,247.574l8.134-20.752
	h5.154c18.614,0,34.864-12.589,39.517-30.613l0.248-0.96c1.162,0.473,2.43,0.738,3.762,0.738h36.774l-4.793,2.782
	c-22.448,13.032-36.394,37.252-36.394,63.208v66.506L181.264,247.574z M313.59,268.858l24.997,43.296
	c-18.305,12.959-32.489,31.367-40.18,52.839L313.59,268.858z M348.637,329.56l36.042,62.427h-72.121
	C315.394,366.446,328.96,344.096,348.637,329.56z M312.558,411.987h89.441c3.572,0,6.874-1.906,8.66-5s1.786-6.906,0-10
	l-44.717-77.452c11.046-4.849,23.241-7.548,36.057-7.548c49.626,0,90,40.374,90,90s-40.374,90-90,90
	C355.753,491.987,317.548,456.924,312.558,411.987z"/>
<path d="M259.499,491.987c-2.63,0-5.21,1.069-7.07,2.93s-2.93,4.44-2.93,7.07s1.069,5.21,2.93,7.069
	c1.86,1.86,4.44,2.931,7.07,2.931s5.21-1.07,7.069-2.931c1.86-1.859,2.931-4.439,2.931-7.069s-1.07-5.21-2.931-7.07
	C264.709,493.056,262.129,491.987,259.499,491.987z"/>
<path d="M107.468,93.773c10.098,10.098,23.357,15.145,36.622,15.145c13.261,0,26.526-5.05,36.622-15.145
	c20.193-20.193,20.193-53.051,0-73.244l-5.373-5.373c-20.193-20.193-53.051-20.193-73.244,0s-20.193,53.051,0,73.244L107.468,93.773
	z M116.237,29.299c6.197-6.198,14.339-9.297,22.479-9.297s16.283,3.098,22.48,9.297l5.373,5.373
	c12.396,12.396,12.396,32.563,0,44.959s-32.565,12.396-44.959,0l-5.373-5.373C103.842,61.862,103.842,41.694,116.237,29.299z"/>
<path d="M302.999,97.987c2.63,0,5.21-1.07,7.069-2.931c1.86-1.859,2.931-4.439,2.931-7.069s-1.07-5.21-2.931-7.07
	c-1.859-1.86-4.439-2.93-7.069-2.93s-5.21,1.069-7.07,2.93s-2.93,4.44-2.93,7.07s1.069,5.21,2.93,7.069
	C297.789,96.917,300.369,97.987,302.999,97.987z"/>
<path d="M209.999,97.987h53.333c5.522,0,10-4.478,10-10s-4.478-10-10-10h-53.333c-5.522,0-10,4.478-10,10
	S204.477,97.987,209.999,97.987z"/>
<g>
</g>
<g>
</g>
<g>
</g>
<g>
</g>
<g>
</g>
<g>
</g>
<g>
</g>
<g>
</g>
<g>
</g>
<g>
</g>
<g>
</g>
<g>
</g>
<g>
</g>
<g>
</g>
<g>
</g>
</svg>
